<?xml version="1.0" standalone="no"?>
<!DOCTYPE svg PUBLIC "-//W3C//DTD SVG 20010904//EN"
 "http://www.w3.org/TR/2001/REC-SVG-20010904/DTD/svg10.dtd">
<svg version="1.0" xmlns="http://www.w3.org/2000/svg"
 width="400.000000pt" height="400.000000pt" viewBox="0 0 400.000000 400.000000"
 preserveAspectRatio="xMidYMid meet">
<metadata>
Created by potrace 1.11, written by Peter Selinger 2001-2013
</metadata>
<g transform="translate(0.000000,400.000000) scale(0.100000,-0.100000)"
fill="#000000" stroke="none">
<path d="M340 3172 l0 -59 63 -7 c74 -8 161 -32 192 -52 51 -33 50 -18 50
-934 0 -804 -1 -857 -18 -888 -10 -18 -32 -41 -49 -51 -29 -19 -51 -23 -170
-37 l-58 -6 0 -59 0 -59 480 0 481 0 -3 57 -3 58 -105 13 c-124 15 -169 34
-192 82 -16 31 -18 72 -18 398 l0 362 179 0 c196 0 293 13 414 57 107 38 204
98 278 172 106 107 159 218 180 379 37 290 -119 508 -431 603 -74 23 -85 23
-672 27 l-598 3 0 -59z m1018 -96 c104 -28 203 -110 243 -202 45 -100 61 -267
39 -385 -15 -79 -62 -172 -113 -223 -94 -93 -226 -135 -429 -136 l-108 0 0
480 0 480 158 0 c103 0 175 -5 210 -14z"/>
<path d="M2730 3171 l0 -58 61 -7 c85 -10 183 -42 218 -72 17 -14 36 -42 42
-62 7 -26 9 -257 6 -762 -3 -610 -6 -736 -19 -795 -37 -162 -89 -244 -185
-291 -49 -24 -69 -28 -142 -28 -102 0 -151 13 -215 55 -74 50 -77 65 -26 151
94 157 114 204 114 271 -1 72 -19 115 -66 150 -94 70 -216 62 -287 -19 -120
-137 -86 -420 69 -575 115 -115 258 -164 460 -156 197 7 323 59 450 188 76 77
121 148 158 251 l27 73 5 745 c6 846 2 804 83 840 24 11 85 25 135 32 l92 12
0 58 0 58 -490 0 -490 0 0 -59z"/>
</g>
</svg>
